<svg width="1200" height="360" viewBox="0 0 1200 360" fill="none" xmlns="http://www.w3.org/2000/svg">
<defs>
<linearGradient id="line" x1="120" y1="40" x2="1080" y2="320" gradientUnits="userSpaceOnUse">
<stop stop-color="#2563EB"/><stop offset="1" stop-color="#60A5FA"/>
</linearGradient>
<linearGradient id="fade" x1="0" y1="0" x2="1200" y2="0" gradientUnits="userSpaceOnUse">
<stop stop-color="#F8FAFC" stop-opacity="0"/><stop offset="0.2" stop-color="#E2E8F0"/>
<stop offset="0.8" stop-color="#E2E8F0"/><stop offset="1" stop-color="#F8FAFC" stop-opacity="0"/>
</linearGradient>
<filter id="blur"><feGaussianBlur stdDeviation="35"/></filter>
</defs>
<rect width="1200" height="360" rx="24" fill="#F8FAFC"/>
<path d="M0 80H1200 M0 160H1200 M0 240H1200 M200 0V360 M400 0V360 M600 0V360 M800 0V360 M1000 0V360" stroke="#E2E8F0" stroke-width="1"/>
<circle cx="950" cy="80" r="120" fill="#60A5FA" opacity=".10" filter="url(#blur)"/>
<text x="90" y="92" font-family="Arial, Helvetica, sans-serif" font-size="15" font-weight="600" letter-spacing="3" fill="#2563EB">HARSH KUMAR</text>
<text x="90" y="155" font-family="Arial, Helvetica, sans-serif" font-size="48" font-weight="700" fill="#0F172A">Full-Stack Developer</text>
<text x="90" y="195" font-family="Arial, Helvetica, sans-serif" font-size="19" fill="#475569">Building practical products with software, AI &amp; curiosity.</text>
<rect x="90" y="240" width="420" height="48" rx="8" fill="#0F172A"/>
<circle cx="112" cy="264" r="5" fill="#60A5FA"/>
<text x="128" y="270" font-family="monospace" font-size="14" fill="#CBD5E1">building → learning → shipping</text>
<g opacity=".95">
<circle cx="880" cy="115" r="32" fill="#EFF6FF" stroke="#2563EB" stroke-width="2"/>
<text x="880" y="121" text-anchor="middle" font-family="Arial" font-size="12" font-weight="700" fill="#2563EB">AI</text>
<circle cx="1010" cy="180" r="32" fill="#EFF6FF" stroke="#60A5FA" stroke-width="2"/>
<text x="1010" y="186" text-anchor="middle" font-family="Arial" font-size="11" font-weight="700" fill="#2563EB">API</text>
<circle cx="850" cy="260" r="32" fill="#EFF6FF" stroke="#2563EB" stroke-width="2"/>
<text x="850" y="266" text-anchor="middle" font-family="Arial" font-size="10" font-weight="700" fill="#2563EB">DATA</text>
<circle cx="1030" cy="285" r="32" fill="#EFF6FF" stroke="#60A5FA" stroke-width="2"/>
<text x="1030" y="291" text-anchor="middle" font-family="Arial" font-size="10" font-weight="700" fill="#2563EB">SHIP</text>
<path d="M907 132L982 165 M990 209L875 239 M881 291L1003 285 M1030 248L1018 213" stroke="url(#line)" stroke-width="2"/>
</g>
<rect x="90" y="320" width="1020" height="2" rx="1" fill="url(#fade)"/>
</svg>